<?xml version="1.0" encoding="UTF-8"?>
<svg id="Layer_2" xmlns="http://www.w3.org/2000/svg" viewBox="0 0 365.29 45.91">
  <defs>
    <style>
      .cls-1 {
        fill: #fff;
      }

      .cls-2 {
        fill: #3fabbe;
      }
    </style>
  </defs>
  <g id="Layer_1-2" data-name="Layer_1">
    <g id="Arte_2">
      <g>
        <g>
          <path class="cls-1" d="M55.76,6.19h3.56l7.29,15.39,12.76-15.39h3.43l-14.71,17.69c-.51.61-1.21,1.14-2.13,1.14-.86,0-1.4-.5-1.7-1.14l-8.5-17.69h0Z"/>
          <polygon class="cls-1" points="84.25 25.28 87.46 6.7 90.38 6.7 87.17 25.28 84.25 25.28"/>
          <polygon class="cls-1" points="93.21 25.28 96.39 6.7 99.3 6.7 96.56 22.7 111.64 22.7 109.24 25.28 93.21 25.28"/>
          <polygon class="cls-1" points="115.66 25.28 118.84 6.7 121.75 6.7 119.01 22.7 134.09 22.7 131.69 25.28 115.66 25.28"/>
          <polygon class="cls-1" points="138.11 25.28 141.29 6.7 160.48 6.7 158.13 8.77 143.81 8.77 142.82 14.44 158.14 14.44 156.23 16.51 142.49 16.51 141.44 22.7 157.86 22.7 155.46 25.28 138.11 25.28"/>
          <polygon class="cls-1" points="161.91 25.28 165.09 6.7 168 6.7 165.26 22.7 180.33 22.7 177.94 25.28 161.91 25.28"/>
          <path class="cls-1" d="M189.89,25.28l2.26-2.58h12.84l-6.25-13.15-13,15.73h-3.53l15.04-18.06c.5-.6,1.24-1.16,2.15-1.16s1.46.51,1.76,1.16l8.71,18.06h-19.98Z"/>
        </g>
        <g>
          <path class="cls-1" d="M68.22,39.72l.79-4.64h6.56c.95,0,1.6-.62,1.6-1.49,0-.72-.49-1.09-1.31-1.09h-6.35l.98-1.03h5.53c1.51,0,2.41.67,2.41,1.85,0,1.26-.91,1.97-1.61,2.16.59.16,1.11.7,1.11,1.62,0,1.33-.81,2.63-3.34,2.63h-6.38.01ZM70.01,35.59l-.44,2.58h5.33c1.31,0,1.88-.7,1.88-1.51,0-.63-.39-1.07-1.21-1.07h-5.56Z"/>
          <path class="cls-1" d="M89.74,39.2l-2.27-2.58h-4.37l-.43,2.58h-1.4l.62-3.61h5.73c1.52,0,2.94-.47,2.94-1.76,0-1.02-.98-1.33-2.39-1.33h-5.68l.95-1.03h5.31c1.7,0,3.27.64,3.27,2.34s-1.29,2.76-3.15,2.94l2.77,2.97-1.89-.52h-.01Z"/>
          <path class="cls-1" d="M97.9,39.2l.9-1.03h5.13l-2.5-5.26-5.2,6.29h-1.41l6.01-7.22c.2-.24.5-.46.86-.46s.58.2.7.46l3.48,7.22h-7.99.02Z"/>
          <path class="cls-1" d="M109.23,39.72l1.02-1.55h6.18s2.05-.38,2.05-1.35c0-.87-2.15-.71-2.15-.71h-3.16c-1.8,0-2.66-.67-2.66-1.88,0-1.69,1.12-2.76,3.68-2.76h6.28l-.94,1.03h-5.62c-1.45,0-2.17.55-2.17,1.58,0,.89.85,1,2.28,1h3.11c1.73,0,2.62.62,2.62,1.84,0,1.74-1.07,2.8-3.64,2.8h-6.89.01Z"/>
          <path class="cls-1" d="M122.92,39.72l1.43-8.25h1.29l-1.43,8.25h-1.29Z"/>
          <path class="cls-1" d="M128.26,39.72l1.41-8.25h1.28l-1.24,7.22h6.55l-.96,1.03h-7.05.01Z"/>
          <path class="cls-1" d="M146.36,39.72l.79-4.64h6.56c.95,0,1.6-.62,1.6-1.49,0-.72-.49-1.09-1.31-1.09h-6.35l.98-1.03h5.53c1.51,0,2.41.67,2.41,1.85,0,1.26-.91,1.97-1.61,2.16.59.16,1.11.7,1.11,1.62,0,1.33-.81,2.63-3.34,2.63h-6.38,0ZM148.15,35.59l-.44,2.58h5.33c1.31,0,1.88-.7,1.88-1.51,0-.63-.39-1.07-1.21-1.07h-5.56Z"/>
          <path class="cls-1" d="M161.6,39.2l.9-1.03h5.13l-2.5-5.26-5.2,6.29h-1.41l6.01-7.22c.2-.24.5-.46.86-.46s.58.2.7.46l3.48,7.22h-7.99.02Z"/>
          <path class="cls-1" d="M175.57,33.16l-1.12,6.56h-1.17l1.29-7.49c.1-.59.47-.84.86-.84.15,0,.33.06.5.26l5.33,6.4,1.12-6.58h1.17l-1.29,7.49c-.1.59-.47.84-.86.84-.17,0-.35-.04-.5-.25l-5.34-6.39h.01Z"/>
          <path class="cls-1" d="M193.31,39.72l-5.36-3.96-.68,3.96h-1.29l1.41-8.25h1.31l-.62,3.61,6.17-3.61h2.06l-7.13,3.98,6.07,4.27h-1.94Z"/>
        </g>
        <path class="cls-1" d="M6.77,0L0,6.97v38.94h37.82c2.65-2.73,4.14-4.26,6.79-6.99V0H6.77ZM16.05,36.49L4.61,17l11.12,13.27c.31.37.56.25.89.03l1.38-.94,2.27,2.75-4.2,4.4-.02-.02ZM25.74,36.52l-13.55-15.61c-3.49-4.01-6.42-7.73-8.57-7.6,6.15-1.45,10.9,4.56,14.61,8.63l7.27,8.04c.43.47.63.31.97,0l6.58-6.11-7.31,12.65h0ZM39.31,17.87c.17-3.07-2.46-.62-3.29.05l-10.91,9.71-1.91-2.08,13.1-9.06c.73-.46,2.49-1.68,3.33-.25.8-2.61-2.7-1.44-3.88-1.08-1.86-1.91-4.59-.07-6.4,1.01l-9.54,5.7-1-1.08,9.81-5.53c3.99-2.18,5.89-2.35,7.36-.94,4.07-1.54,5.99.95,3.32,3.57M31.49,16.44c.66-.8,2.72-1.18,3.23-1.17.03,1.53-2.4,1.22-3.23,1.17"/>
      </g>
    </g>
    <g>
      <path class="cls-1" d="M229.7,14.8c4.14-5.57,10.57-8.85,17.39-8.85h8.55c10.03,0,14.18,4.22,14.18,10.57,0,5.85-3.9,9.76-12.4,9.76h-15.71c-2.37,0-3.51.66-3.51,2.44v2.49h31.86c-4.14,5.51-10.54,8.74-17.31,8.74h-24.43v-11.13c0-6.25,4.3-9.3,12.4-9.3h15.71c2.37,0,3.51-.61,3.51-2.39s-1.14-2.34-3.51-2.34h-26.73Z"/>
      <path class="cls-2" d="M306.11,22.93c0,12.2-7.01,17.59-21.09,17.59s-21.09-5.39-21.09-17.59,7.06-17.54,21.09-17.54,21.09,5.39,21.09,17.54h0ZM296.03,22.93c0-7.32-2.91-8.69-11.02-8.69s-11.02,1.37-11.02,8.69,2.91,8.74,11.02,8.74,11.02-1.42,11.02-8.74Z"/>
      <path class="cls-2" d="M308.79,37.28s1.19-7.76,29.99-4.23c27.2,3.33,26.07.56,26.07.56,0,0,1.69,7.88-26.69,4.46-25.74-3.1-29.37-.79-29.37-.79h0Z"/>
      <g>
        <path class="cls-1" d="M321.54,20.27v8.99h-1.82v-2.26c-.86,1.49-2.52,2.4-4.85,2.4-3.19,0-5.15-1.71-5.15-4.22,0-2.23,1.39-4.11,5.44-4.11h4.48v-.88c0-2.48-1.37-3.83-3.99-3.83-1.82,0-3.54.66-4.69,1.71l-.86-1.46c1.42-1.24,3.51-1.96,5.74-1.96,3.65,0,5.71,1.88,5.71,5.63h-.01ZM319.64,24.9v-2.37h-4.42c-2.73,0-3.62,1.1-3.62,2.59,0,1.68,1.31,2.73,3.56,2.73s3.73-1.05,4.48-2.95Z"/>
        <path class="cls-1" d="M337.67,20.85v8.41h-1.9v-8.22c0-3.06-1.55-4.63-4.23-4.63-3.03,0-4.93,1.93-4.93,5.24v7.61h-1.9v-14.51h1.82v2.68c1.02-1.77,2.92-2.79,5.36-2.79,3.43,0,5.79,2.04,5.79,6.21h-.01Z"/>
        <path class="cls-1" d="M339.47,22.01c0-4.3,3.06-7.36,7.18-7.36s7.16,3.06,7.16,7.36-3.03,7.39-7.16,7.39-7.18-3.09-7.18-7.39ZM351.88,22.01c0-3.39-2.22-5.65-5.23-5.65s-5.25,2.26-5.25,5.65,2.25,5.65,5.25,5.65,5.23-2.26,5.23-5.65Z"/>
        <path class="cls-1" d="M353.73,27.61l.86-1.54c1.13.91,3.03,1.63,5.01,1.63,2.68,0,3.78-.94,3.78-2.37,0-3.78-9.14-.8-9.14-6.54,0-2.37,1.98-4.14,5.57-4.14,1.82,0,3.81.52,4.99,1.35l-.83,1.57c-1.23-.88-2.71-1.24-4.15-1.24-2.55,0-3.67,1.02-3.67,2.4,0,3.92,9.14.97,9.14,6.54,0,2.51-2.14,4.14-5.82,4.14-2.33,0-4.58-.77-5.74-1.79h0Z"/>
      </g>
    </g>
  </g>
</svg>